<svg xmlns="http://www.w3.org/2000/svg" width="1000" height="200" viewBox="0 0 1000 200">
  <rect width="1000" height="200" fill="#050505" rx="12"/>
  <!-- Step 1 -->
  <rect x="30" y="50" width="150" height="80" fill="#0e0e0e" rx="10" stroke="#1e1e1e" stroke-width="1"/>
  <text x="105" y="85" text-anchor="middle" font-family="-apple-system, sans-serif" font-size="24" font-weight="700" fill="#fff">1</text>
  <text x="105" y="110" text-anchor="middle" font-family="-apple-system, sans-serif" font-size="13" fill="#888">Setup</text>
  <!-- Arrow -->
  <line x1="185" y1="90" x2="215" y2="90" stroke="#333" stroke-width="2"/>
  <polygon points="215,85 225,90 215,95" fill="#333"/>
  <!-- Step 2 -->
  <rect x="225" y="50" width="150" height="80" fill="#0e0e0e" rx="10" stroke="#1e1e1e" stroke-width="1"/>
  <text x="300" y="85" text-anchor="middle" font-family="-apple-system, sans-serif" font-size="24" font-weight="700" fill="#fff">2</text>
  <text x="300" y="110" text-anchor="middle" font-family="-apple-system, sans-serif" font-size="13" fill="#888">Detect</text>
  <!-- Arrow -->
  <line x1="380" y1="90" x2="410" y2="90" stroke="#333" stroke-width="2"/>
  <polygon points="410,85 420,90 410,95" fill="#333"/>
  <!-- Step 3 -->
  <rect x="420" y="50" width="150" height="80" fill="#0e0e0e" rx="10" stroke="#1e1e1e" stroke-width="1"/>
  <text x="495" y="85" text-anchor="middle" font-family="-apple-system, sans-serif" font-size="24" font-weight="700" fill="#fff">3</text>
  <text x="495" y="110" text-anchor="middle" font-family="-apple-system, sans-serif" font-size="13" fill="#888">Theme</text>
  <!-- Arrow -->
  <line x1="575" y1="90" x2="605" y2="90" stroke="#333" stroke-width="2"/>
  <polygon points="605,85 615,90 605,95" fill="#333"/>
  <!-- Step 4 -->
  <rect x="615" y="50" width="150" height="80" fill="#0e0e0e" rx="10" stroke="#1e1e1e" stroke-width="1"/>
  <text x="690" y="85" text-anchor="middle" font-family="-apple-system, sans-serif" font-size="24" font-weight="700" fill="#fff">4</text>
  <text x="690" y="110" text-anchor="middle" font-family="-apple-system, sans-serif" font-size="13" fill="#888">Generate</text>
  <!-- Arrow -->
  <line x1="770" y1="90" x2="800" y2="90" stroke="#333" stroke-width="2"/>
  <polygon points="800,85 810,90 800,95" fill="#333"/>
  <!-- Step 5 -->
  <rect x="810" y="50" width="150" height="80" fill="#0e0e0e" rx="10" stroke="#1e1e1e" stroke-width="1"/>
  <text x="885" y="85" text-anchor="middle" font-family="-apple-system, sans-serif" font-size="24" font-weight="700" fill="#fff">5</text>
  <text x="885" y="110" text-anchor="middle" font-family="-apple-system, sans-serif" font-size="13" fill="#888">Download</text>
  <!-- Placeholder label -->
  <text x="500" y="175" text-anchor="middle" font-family="-apple-system, sans-serif" font-size="11" fill="#282828">PLACEHOLDER — Replace with actual demo flow screenshot</text>
</svg>
