<svg xmlns="http://www.w3.org/2000/svg" width="1200" height="360" viewBox="0 0 1200 360" fill="none">
  <defs>
    <linearGradient id="bg" x1="0" y1="0" x2="1" y2="1">
      <stop offset="0%" stop-color="#050505"/>
      <stop offset="100%" stop-color="#0b0b0b"/>
    </linearGradient>
    <radialGradient id="glow" cx="0" cy="0" r="1" gradientUnits="userSpaceOnUse" gradientTransform="translate(940 80) rotate(120) scale(460 300)">
      <stop offset="0%" stop-color="#1b1b1b" stop-opacity="0.9"/>
      <stop offset="100%" stop-color="#0a0a0a" stop-opacity="0"/>
    </radialGradient>
    <pattern id="grid" width="40" height="40" patternUnits="userSpaceOnUse">
      <path d="M40 0H0V40" fill="none" stroke="#121212" stroke-width="1"/>
    </pattern>
    <filter id="softShadow" x="-50%" y="-50%" width="200%" height="200%">
      <feDropShadow dx="0" dy="10" stdDeviation="14" flood-color="#000" flood-opacity="0.6"/>
    </filter>
  </defs>

  <rect width="1200" height="360" rx="24" fill="url(#bg)"/>
  <rect x="12" y="12" width="1176" height="336" rx="20" fill="#090909" stroke="#161616"/>
  <rect x="12" y="12" width="1176" height="336" rx="20" fill="url(#grid)" opacity="0.4"/>
  <rect x="12" y="12" width="1176" height="336" rx="20" fill="url(#glow)"/>

  <g filter="url(#softShadow)">
    <g transform="translate(64 44)">
      <g transform="translate(0 0)">
        <rect width="88" height="88" rx="24" fill="#0c0c0c" stroke="#1e1e1e"/>
        <circle cx="44" cy="44" r="20" stroke="#fff" stroke-width="6" fill="none"/>
        <circle cx="44" cy="44" r="8" fill="#fff"/>
        <circle cx="64" cy="28" r="4" fill="#fff"/>
      </g>
      <g transform="translate(104 0)">
        <rect width="88" height="88" rx="24" fill="#0c0c0c" stroke="#1e1e1e"/>
        <path d="M28 64 L44 24 L60 64 H52 L48 52 H40 L36 64 Z" fill="#fff"/>
      </g>
      <g transform="translate(0 104)">
        <rect width="88" height="88" rx="24" fill="#0c0c0c" stroke="#1e1e1e"/>
        <path d="M44 24 L62 34 L62 54 L44 64 L26 54 L26 34 Z" fill="none" stroke="#fff" stroke-width="6" stroke-linejoin="round"/>
      </g>
      <g transform="translate(104 104)">
        <rect width="88" height="88" rx="24" fill="#0c0c0c" stroke="#1e1e1e"/>
        <path d="M44 22 C56 22 66 32 66 44 C66 62 44 74 44 74 C44 74 22 62 22 44 C22 32 32 22 44 22 Z" fill="#fff"/>
        <circle cx="44" cy="44" r="8" fill="#0c0c0c"/>
      </g>
      <g transform="translate(0 208)">
        <rect width="88" height="88" rx="24" fill="#0c0c0c" stroke="#1e1e1e"/>
        <circle cx="44" cy="44" r="20" stroke="#fff" stroke-width="6" fill="none"/>
        <rect x="40" y="14" width="8" height="12" rx="2" fill="#fff"/>
        <rect x="40" y="62" width="8" height="12" rx="2" fill="#fff"/>
        <rect x="14" y="40" width="12" height="8" rx="2" fill="#fff"/>
        <rect x="62" y="40" width="12" height="8" rx="2" fill="#fff"/>
        <circle cx="44" cy="44" r="8" fill="#0c0c0c"/>
      </g>
      <g transform="translate(104 208)">
        <rect width="88" height="88" rx="24" fill="#0c0c0c" stroke="#1e1e1e"/>
        <path d="M44 22 L50 38 L66 44 L50 50 L44 66 L38 50 L22 44 L38 38 Z" fill="#fff"/>
      </g>
    </g>
  </g>

  <g font-family="Space Grotesk, 'SF Pro Display', system-ui, sans-serif" fill="#fff">
    <text x="320" y="140" font-size="56" font-weight="700">ThemeForge</text>
    <text x="320" y="180" font-size="18" font-weight="400" fill="#c7c7c7">AI-powered iOS icon &amp; wallpaper forge with a precision post-processing pipeline</text>

    <g transform="translate(320 214)">
      <rect width="150" height="30" rx="15" fill="#111" stroke="#222"/>
      <text x="75" y="20" text-anchor="middle" font-size="12" fill="#f5f5f5">Gemini 2.5 Flash</text>
    </g>
    <g transform="translate(484 214)">
      <rect width="180" height="30" rx="15" fill="#111" stroke="#222"/>
      <text x="90" y="20" text-anchor="middle" font-size="12" fill="#f5f5f5">Gemini 3 Pro Image</text>
    </g>
    <g transform="translate(678 214)">
      <rect width="120" height="30" rx="15" fill="#111" stroke="#222"/>
      <text x="60" y="20" text-anchor="middle" font-size="12" fill="#f5f5f5">Higgsfield</text>
    </g>

    <text x="320" y="262" font-size="14" fill="#7f7f7f">Superellipse corners • Unsharp mask • Zip export • Focus Mode ready</text>
  </g>
</svg>
