<svg xmlns="http://www.w3.org/2000/svg" width="800" height="500" viewBox="0 0 800 500">
  <rect width="800" height="500" fill="#050505" rx="12"/>
  <rect x="20" y="20" width="760" height="460" fill="#0a0a0a" rx="8" stroke="#161616" stroke-width="1"/>
  <!-- Step indicator -->
  <circle cx="400" cy="110" r="40" fill="none" stroke="#fff" stroke-width="2"/>
  <text x="400" y="125" text-anchor="middle" font-family="-apple-system, sans-serif" font-size="36" font-weight="800" fill="#fff">5</text>
  <!-- Title -->
  <text x="400" y="185" text-anchor="middle" font-family="-apple-system, sans-serif" font-size="28" font-weight="700" fill="#e0e0e0">Download</text>
  <!-- Description -->
  <text x="400" y="220" text-anchor="middle" font-family="-apple-system, sans-serif" font-size="15" fill="#666">Preview all icons, download individually or as a zip</text>
  <!-- Icon grid mock -->
  <rect x="170" y="250" width="70" height="85" fill="#0e0e0e" rx="14" stroke="#161616" stroke-width="1"/>
  <rect x="180" y="258" width="50" height="50" fill="#161616" rx="12"/>
  <text x="205" y="325" text-anchor="middle" font-family="-apple-system, sans-serif" font-size="9" fill="#666">Instagram</text>
  <rect x="255" y="250" width="70" height="85" fill="#0e0e0e" rx="14" stroke="#161616" stroke-width="1"/>
  <rect x="265" y="258" width="50" height="50" fill="#161616" rx="12"/>
  <text x="290" y="325" text-anchor="middle" font-family="-apple-system, sans-serif" font-size="9" fill="#666">WhatsApp</text>
  <rect x="340" y="250" width="70" height="85" fill="#0e0e0e" rx="14" stroke="#161616" stroke-width="1"/>
  <rect x="350" y="258" width="50" height="50" fill="#161616" rx="12"/>
  <text x="375" y="325" text-anchor="middle" font-family="-apple-system, sans-serif" font-size="9" fill="#666">Safari</text>
  <rect x="425" y="250" width="70" height="85" fill="#0e0e0e" rx="14" stroke="#161616" stroke-width="1"/>
  <rect x="435" y="258" width="50" height="50" fill="#161616" rx="12"/>
  <text x="460" y="325" text-anchor="middle" font-family="-apple-system, sans-serif" font-size="9" fill="#666">Slack</text>
  <rect x="510" y="250" width="70" height="85" fill="#0e0e0e" rx="14" stroke="#161616" stroke-width="1"/>
  <rect x="520" y="258" width="50" height="50" fill="#161616" rx="12"/>
  <text x="545" y="325" text-anchor="middle" font-family="-apple-system, sans-serif" font-size="9" fill="#666">Phone</text>
  <rect x="595" y="250" width="70" height="85" fill="#0e0e0e" rx="14" stroke="#161616" stroke-width="1"/>
  <rect x="605" y="258" width="50" height="50" fill="#161616" rx="12"/>
  <text x="630" y="325" text-anchor="middle" font-family="-apple-system, sans-serif" font-size="9" fill="#666">Mail</text>
  <!-- Download button -->
  <rect x="250" y="370" width="300" height="44" fill="#fff" rx="10"/>
  <text x="400" y="397" text-anchor="middle" font-family="-apple-system, sans-serif" font-size="14" font-weight="700" fill="#000">Download Everything (.zip)</text>
  <!-- Zip contents -->
  <text x="400" y="435" text-anchor="middle" font-family="-apple-system, sans-serif" font-size="10" fill="#333">icons/ · wallpapers/ · manifest.json · SETUP_GUIDE.md</text>
  <!-- Placeholder -->
  <text x="400" y="460" text-anchor="middle" font-family="-apple-system, sans-serif" font-size="11" fill="#282828">PLACEHOLDER — Replace with actual screenshot</text>
</svg>
